<svg xmlns="http://www.w3.org/2000/svg" viewBox="0 0 800 400" width="800" height="400">
  <!-- Gradient definitions -->
  <defs>
    <linearGradient id="goldGradient" x1="0%" y1="0%" x2="100%" y2="0%">
      <stop offset="0%" style="stop-color:#FFD700;stop-opacity:1" />
      <stop offset="100%" style="stop-color:#FFA500;stop-opacity:1" />
    </linearGradient>
    <linearGradient id="silverGradient" x1="0%" y1="0%" x2="100%" y2="0%">
      <stop offset="0%" style="stop-color:#E6E6E6;stop-opacity:1" />
      <stop offset="100%" style="stop-color:#CCCCCC;stop-opacity:1" />
    </linearGradient>
    <filter id="shadow" x="-10%" y="-10%" width="120%" height="130%">
      <feDropShadow dx="3" dy="6" stdDeviation="6" flood-opacity="0.3"/>
    </filter>
  </defs>
  
  <!-- Main bell -->
  <path d="M700 200 C750 150, 780 250, 700 300 C600 350, 100 320, 100 200 C100 80, 600 50, 700 100 C780 150, 750 250, 700 200 Z" 
        fill="url(#goldGradient)" stroke="#D4AF37" stroke-width="3" filter="url(#shadow)" />
  
  <!-- Bell rim -->
  <ellipse cx="700" cy="200" rx="50" ry="80" fill="none" stroke="#D4AF37" stroke-width="5" />
  
  <!-- Mouthpiece area -->
  <ellipse cx="100" cy="200" rx="20" ry="25" fill="url(#silverGradient)" stroke="#888888" stroke-width="2" />
  <circle cx="85" cy="200" r="10" fill="#444444" />
  
  <!-- Valves -->
  <rect x="300" y="120" width="30" height="80" rx="5" ry="5" fill="url(#silverGradient)" stroke="#888888" stroke-width="2" />
  <rect x="350" y="120" width="30" height="80" rx="5" ry="5" fill="url(#silverGradient)" stroke="#888888" stroke-width="2" />
  <rect x="400" y="120" width="30" height="80" rx="5" ry="5" fill="url(#silverGradient)" stroke="#888888" stroke-width="2" />
  
  <!-- Valve buttons -->
  <circle cx="315" cy="110" r="12" fill="#FFFFFF" stroke="#888888" stroke-width="2" />
  <circle cx="365" cy="110" r="12" fill="#FFFFFF" stroke="#888888" stroke-width="2" />
  <circle cx="415" cy="110" r="12" fill="#FFFFFF" stroke="#888888" stroke-width="2" />
  
  <!-- Valve tubes -->
  <path d="M310 205 C310 235, 310 240, 310 250" stroke="#D4AF37" stroke-width="8" fill="none" />
  <path d="M360 205 C360 245, 360 250, 360 260" stroke="#D4AF37" stroke-width="8" fill="none" />
  <path d="M410 205 C410 255, 410 260, 410 270" stroke="#D4AF37" stroke-width="8" fill="none" />
  
  <!-- Water key -->
  <circle cx="550" cy="270" r="8" fill="#444444" stroke="#222222" stroke-width="1" />
  <line x1="550" y1="270" x2="570" y2="285" stroke="#444444" stroke-width="3" />
  
  <!-- Sparkle effects -->
  <circle cx="730" cy="170" r="5" fill="white" opacity="0.7">
    <animate attributeName="opacity" values="0.7;0.3;0.7" dur="2s" repeatCount="indefinite" />
  </circle>
  <circle cx="710" cy="230" r="4" fill="white" opacity="0.6">
    <animate attributeName="opacity" values="0.6;0.2;0.6" dur="2.5s" repeatCount="indefinite" />
  </circle>
  <circle cx="200" cy="180" r="3" fill="white" opacity="0.5">
    <animate attributeName="opacity" values="0.5;0.1;0.5" dur="3s" repeatCount="indefinite" />
  </circle>
  
  <!-- Optional: Musical notes floating around -->
  <path d="M650 100 C655 90, 665 90, 670 100 L670 130 C670 140, 660 140, 655 130 Z" fill="#D4AF37">
    <animate attributeName="transform" attributeType="XML" type="translate" 
      from="0,0" to="0,-30" dur="3s" repeatCount="indefinite" />
  </path>
  <line x1="670" y1="100" x2="670" y2="60" stroke="#D4AF37" stroke-width="2">
    <animate attributeName="transform" attributeType="XML" type="translate" 
      from="0,0" to="0,-30" dur="3s" repeatCount="indefinite" />
  </line>
  
  <path d="M250 80 C255 70, 265 70, 270 80 L270 110 C270 120, 260 120, 255 110 Z" fill="#D4AF37">
    <animate attributeName="transform" attributeType="XML" type="translate" 
      from="0,0" to="0,-20" dur="2.5s" repeatCount="indefinite" />
  </path>
  <line x1="270" y1="80" x2="270" y2="40" stroke="#D4AF37" stroke-width="2">
    <animate attributeName="transform" attributeType="XML" type="translate" 
      from="0,0" to="0,-20" dur="2.5s" repeatCount="indefinite" />
  </line>
</svg> 